HIERARCHY
ROOT Hips
{
	OFFSET -3.958830 18.904000 13.208200
	CHANNELS 6 Xposition Yposition Zposition Zrotation Yrotation Xrotation 
	JOINT LHipJoint
	{
		OFFSET 0.000000 0.000000 0.000000
		CHANNELS 3 Zrotation Yrotation Xrotation
		JOINT LeftUpLeg
		{
			OFFSET 1.800000 -1.400000 0.085000
			CHANNELS 3 Zrotation Yrotation Xrotation
			JOINT LeftLeg
			{
				OFFSET 2.215000 -6.000000 0.000000
				CHANNELS 3 Zrotation Yrotation Xrotation
				JOINT LeftFoot
				{
					OFFSET 2.500000 -6.900000 0.000000
					CHANNELS 3 Zrotation Yrotation Xrotation
					JOINT LeftToeBase
					{
						OFFSET 0.200000 -0.500000 1.950000
						CHANNELS 3 Zrotation Yrotation Xrotation
						End Site
						{
							OFFSET 0.000000 0.000000 0.000000
						}
					}
				}
			}
		}
	}
	JOINT RHipJoint
	{
		OFFSET 0.000000 0.000000 0.000000
		CHANNELS 3 Zrotation Yrotation Xrotation
		JOINT RightUpLeg
		{
			OFFSET -1.800000 -1.400000 0.085000
			CHANNELS 3 Zrotation Yrotation Xrotation
			JOINT RightLeg
			{
				OFFSET -2.215000 -6.000000 0.000000
				CHANNELS 3 Zrotation Yrotation Xrotation
				JOINT RightFoot
				{
					OFFSET -2.500000 -6.900000 0.000000
					CHANNELS 3 Zrotation Yrotation Xrotation
					JOINT RightToeBase
					{
						OFFSET -0.200000 -0.500000 1.950000
						CHANNELS 3 Zrotation Yrotation Xrotation
						End Site
						{
							OFFSET 0.000000 0.000000 0.000000
						}
					}
				}
			}
		}
	}
	JOINT LowerBack
	{
		OFFSET 0.000000 0.000000 0.000000
		CHANNELS 3 Zrotation Yrotation Xrotation
		JOINT Spine
		{
			OFFSET -0.087000 1.940000 -0.288900
			CHANNELS 3 Zrotation Yrotation Xrotation
			JOINT Spine1
			{
				OFFSET 0.000000 1.950000 0.060000
				CHANNELS 3 Zrotation Yrotation Xrotation
				JOINT Neck
				{
					OFFSET 0.000000 0.000000 0.000000
					CHANNELS 3 Zrotation Yrotation Xrotation
					JOINT Neck1
					{
						OFFSET 0.000000 1.600000 0.340000
						CHANNELS 3 Zrotation Yrotation Xrotation
						JOINT Head
						{
							OFFSET 0.000000 1.667000 -0.240000
							CHANNELS 3 Zrotation Yrotation Xrotation
							End Site
							{
								OFFSET 0.000000 0.000000 0.000000
							}
						}
					}
				}
				JOINT LeftShoulder
				{
					OFFSET 0.000000 0.000000 0.000000
					CHANNELS 3 Zrotation Yrotation Xrotation
					JOINT LeftArm
					{
						OFFSET 2.700000 1.550000 -0.730000
						CHANNELS 3 Zrotation Yrotation Xrotation
						JOINT LeftForeArm
						{
							OFFSET 5.450000 0.000000 0.000000
							CHANNELS 3 Zrotation Yrotation Xrotation
							JOINT LeftHand
							{
								OFFSET 3.450000 0.000000 0.000000
								CHANNELS 3 Zrotation Yrotation Xrotation
								JOINT LeftHandIndex1
								{
									OFFSET 0.750000 0.000000 0.000000
									CHANNELS 3 Zrotation Yrotation Xrotation
									End Site
									{
										OFFSET 0.000000 0.000000 0.000000
									}
								}
							}
						}
					}
				}
				JOINT RightShoulder
				{
					OFFSET 0.000000 0.000000 0.000000
					CHANNELS 3 Zrotation Yrotation Xrotation
					JOINT RightArm
					{
						OFFSET -2.700000 1.550000 -0.730000
						CHANNELS 3 Zrotation Yrotation Xrotation
						JOINT RightForeArm
						{
							OFFSET -5.450000 0.000000 0.000000
							CHANNELS 3 Zrotation Yrotation Xrotation
							JOINT RightHand
							{
								OFFSET -3.450000 0.000000 0.000000
								CHANNELS 3 Zrotation Yrotation Xrotation
								JOINT RightHandIndex1
								{
									OFFSET -0.750000 0.000000 0.000000
									CHANNELS 3 Zrotation Yrotation Xrotation
									End Site
									{
										OFFSET 0.000000 0.000000 0.000000
									}
								}
							}
						}
					}
				}
			}
		}
	}
}
MOTION
Frames: 6
Frame Time: 0.016667
0.246130 16.063670 -0.711130 -2.027393 15.375585 4.674797 -15.401485 12.538467 3.722130 -2.518504 -7.354560 -28.957707 1.855035 5.213673 37.058747 -0.415556 5.701126 2.475911 0.123730 -0.169500 0.322930 18.206420 -9.436668 4.167755 1.381614 7.304022 -44.240966 -1.592707 -2.288591 15.839686 0.096196 -1.131724 3.826093 -0.051130 0.098560 0.121430 -3.366614 -2.157902 -8.469019 6.457645 -3.937987 17.274200 -3.971809 -2.342722 -7.407547 4.927707 0.455588 -4.242878 0.314767 0.031915 31.214804 -4.466980 3.601400 -20.103440 -33.922626 -0.827438 -2.080520 -56.865417 -6.048087 -5.235693 -1.973191 -18.262050 -1.624102 -3.765119 2.554632 0.746590 -0.045090 0.109210 -0.052980 24.231815 1.505377 0.303078 64.514857 4.774230 -10.197898 -1.079014 23.838282 -1.618986 2.281574 -0.887296 -0.361120 0.283540 0.147490 -0.309890 
0.234260 16.051740 -0.715600 -2.479357 14.745323 4.412147 -15.394316 12.517344 3.735324 -1.624291 -7.443107 -29.355763 1.435807 5.584340 38.027493 -0.377629 5.925974 2.388134 0.125560 -0.169160 0.330520 18.212662 -9.403723 4.181043 1.398608 7.315966 -43.887384 -0.774117 -2.169185 12.807113 0.119959 -0.906150 3.912473 -0.055610 0.087820 0.116850 -3.376997 -2.142280 -8.527904 6.731040 -3.812454 17.515140 -3.858396 -2.127070 -7.320792 4.898963 0.494987 -4.443241 0.308422 0.121277 32.077925 -4.347850 3.704220 -20.159700 -33.958349 -1.363470 -1.908077 -56.822906 -6.253702 -5.201304 -1.712669 -18.232883 -1.664380 -3.752398 2.549488 0.756280 -0.056330 0.118080 -0.055950 24.304568 2.135936 0.516304 64.465138 4.836157 -10.373378 -1.745311 24.050838 -1.736259 2.279763 -0.883850 -0.359790 0.283820 0.144030 -0.312890 
0.214750 16.036680 -0.723680 -2.994291 13.842860 4.243648 -15.390492 12.451282 3.753266 -0.415132 -7.577342 -30.006784 0.655849 6.166598 39.018497 -0.321957 6.193385 2.284630 0.123610 -0.165550 0.325000 18.222742 -9.312305 4.218842 0.684923 7.272144 -43.546587 1.206632 -1.982233 7.585778 0.147351 -0.685096 4.004491 -0.060030 0.084670 0.106840 -3.380789 -2.125538 -8.623769 6.887094 -3.590848 17.642919 -3.602484 -1.866595 -6.840815 4.766503 0.459978 -4.979599 0.154100 0.575991 33.117281 -3.772810 3.958370 -19.697260 -33.483000 -2.634607 -1.328954 -57.239363 -6.402286 -5.394286 -1.134942 -18.933558 -1.781498 -3.732334 2.556368 0.754750 -0.063940 0.120590 -0.054950 24.079088 3.624607 1.061569 64.597329 4.947370 -10.726731 -2.881465 24.455510 -1.986789 2.273354 -0.892707 -0.355460 0.284170 0.140350 -0.308070 
0.190420 16.031660 -0.731630 -3.564060 12.712218 3.808872 -15.373560 12.405080 3.701887 0.901986 -7.448125 -30.031155 -0.320058 6.791849 39.393970 -0.273210 6.365723 2.198951 0.157690 -0.116640 0.334330 18.240020 -9.223138 4.297245 -0.356321 7.276818 -43.088179 3.471989 -1.699152 2.559538 0.125929 -0.651939 4.012204 -0.046660 0.056900 0.116280 -3.414333 -2.092621 -8.720500 7.186919 -3.319690 17.760451 -3.569228 -1.560229 -5.570396 4.646626 0.456991 -5.890178 -0.006125 1.041273 34.595806 -2.944420 4.117550 -19.473610 -32.682086 -5.177536 -0.291006 -57.658455 -6.959720 -5.506961 0.298916 -19.227984 -2.040412 -3.695863 2.601598 0.750970 -0.082030 0.145090 -0.048830 23.485587 6.353584 2.031464 65.331713 5.375065 -11.197277 -4.946059 24.680799 -2.480192 2.259567 -0.933510 -0.320210 0.262450 0.121680 -0.298190 
0.167390 16.047450 -0.740310 -4.307716 11.576026 3.183430 -15.354390 12.398307 3.588312 2.205287 -7.120512 -29.466272 -1.122829 7.230974 39.042843 -0.308807 6.450618 2.153205 0.162430 -0.104440 0.345010 18.252368 -9.150762 4.397006 -1.704543 7.283802 -42.563874 5.699951 -1.396314 -1.385333 0.093502 -0.768589 3.970777 -0.026790 0.057700 0.113710 -3.447654 -2.067905 -8.784420 7.687820 -3.038445 17.899564 -3.532872 -1.197333 -3.947008 4.697259 0.761934 -6.789306 0.408657 1.105024 35.759153 -3.149170 4.346450 -19.628100 -32.057221 -8.092255 0.764201 -57.418728 -7.773124 -5.431479 1.322757 -19.272693 -2.272498 -3.701984 2.581855 0.766950 -0.075140 0.154770 -0.058760 22.736854 9.208418 2.986749 65.509282 6.099325 -11.192452 -6.197103 23.993107 -2.734236 2.227119 -0.935450 -0.334400 0.289790 0.135010 -0.310650 
0.143840 16.086970 -0.744850 -5.030643 11.442855 2.528361 -15.328968 12.465156 3.451812 2.917481 -6.768345 -28.454276 -1.088709 7.064505 37.894983 -0.362622 6.266038 2.206732 0.174390 -0.085920 0.359870 18.257950 -9.142005 4.478881 -3.321965 7.072989 -42.447744 7.075369 -1.251901 -2.989045 0.061601 -0.899568 3.912362 -0.012300 0.049350 0.115950 -3.500046 -2.080494 -8.800302 8.304060 -3.163963 18.028246 -3.497537 -1.230395 -2.631676 4.684524 1.082137 -7.528012 0.857788 1.059790 36.817371 -3.133650 4.431430 -19.460810 -31.592463 -10.509335 1.696215 -56.728537 -8.333756 -5.403634 1.535493 -19.505054 -2.362969 -3.694821 2.591884 0.769030 -0.074060 0.164200 -0.067440 22.278557 11.379698 3.685434 65.393546 6.616350 -11.081982 -7.141406 23.189259 -2.883299 2.215853 -0.950373 -0.330900 0.295150 0.137220 -0.315960 
